<svg viewBox="0 0 100 100" xmlns="http://www.w3.org/2000/svg"><title>Oval 60</title><path d="M98.34 62.816c.03-.106.057-.213.085-.32C99.467 58.446 100 54.256 100 50c0-27.614-22.386-50-50-50S0 22.386 0 50s22.386 50 50 50c4.18 0 8.296-.514 12.28-1.52.2-.05.402-.103.602-.156 1.726-.46 2.753-2.23 2.294-3.956-.46-1.726-2.23-2.753-3.956-2.294-.174.046-.35.09-.524.135-3.467.875-7.05 1.322-10.696 1.322-24.042 0-43.532-19.49-43.532-43.532C6.468 25.958 25.958 6.468 50 6.468c24.042 0 43.532 19.49 43.532 43.532 0 3.712-.463 7.36-1.37 10.884-.53 2.005.5 3.775 2.226 4.232 1.727.456 3.497-.573 3.953-2.3z" fill-rule="nonzero" fill="#FF8C00"/></svg>